ffmpeg version 3.4.8-0ubuntu0.2 Copyright (c) 2000-2020 the FFmpeg developers
  built with gcc 7 (Ubuntu 7.5.0-3ubuntu1~18.04)
  configuration: --prefix=/usr --extra-version=0ubuntu0.2 --toolchain=hardened --libdir=/usr/lib/x86_64-linux-gnu --incdir=/usr/include/x86_64-linux-gnu --enable-gpl --disable-stripping --enable-avresample --enable-avisynth --enable-gnutls --enable-ladspa --enable-libass --enable-libbluray --enable-libbs2b --enable-libcaca --enable-libcdio --enable-libflite --enable-libfontconfig --enable-libfreetype --enable-libfribidi --enable-libgme --enable-libgsm --enable-libmp3lame --enable-libmysofa --enable-libopenjpeg --enable-libopenmpt --enable-libopus --enable-libpulse --enable-librubberband --enable-librsvg --enable-libshine --enable-libsnappy --enable-libsoxr --enable-libspeex --enable-libssh --enable-libtheora --enable-libtwolame --enable-libvorbis --enable-libvpx --enable-libwavpack --enable-libwebp --enable-libx265 --enable-libxml2 --enable-libxvid --enable-libzmq --enable-libzvbi --enable-omx --enable-openal --enable-opengl --enable-sdl2 --enable-libdc1394 --enable-libdrm --enable-libiec61883 --enable-chromaprint --enable-frei0r --enable-libopencv --enable-libx264 --enable-shared
  libavutil      55. 78.100 / 55. 78.100
  libavcodec     57.107.100 / 57.107.100
  libavformat    57. 83.100 / 57. 83.100
  libavdevice    57. 10.100 / 57. 10.100
  libavfilter     6.107.100 /  6.107.100
  libavresample   3.  7.  0 /  3.  7.  0
  libswscale      4.  8.100 /  4.  8.100
  libswresample   2.  9.100 /  2.  9.100
  libpostproc    54.  7.100 / 54.  7.100
[rawvideo @ 0x55ffff469a20] Estimating duration from bitrate, this may be inaccurate
Input #0, rawvideo, from '../../SVC-Encoder-20220109T061506Z-001/SVC-Encoder/Dataset/RollerCoaster/ERP_8x8/tile_yuv/Tile_25_480x240.yuv':
  Duration: 00:00:10.00, start: 0.000000, bitrate: 41472 kb/s
    Stream #0:0: Video: rawvideo (I420 / 0x30323449), yuv420p, 480x240, 41472 kb/s, 30 tbr, 30 tbn, 30 tbc
Stream mapping:
  Stream #0:0 -> #0:0 (rawvideo (native) -> h264 (libx264))
Press [q] to stop, [?] for help
[libx264 @ 0x55ffff476c60] using cpu capabilities: MMX2 SSE2Fast LZCNT SSSE3 SSE4.2 AVX
[libx264 @ 0x55ffff476c60] profile High, level 2.1
Output #0, rawvideo, to 'RollerCoaster_Tile_25_480x240_x264_QP_36.h264':
  Metadata:
    encoder         : Lavf57.83.100
    Stream #0:0: Video: h264 (libx264), yuv420p, 480x240, q=-1--1, 30 fps, 30 tbn, 30 tbc
    Metadata:
      encoder         : Lavc57.107.100 libx264
    Side data:
      cpb: bitrate max/min/avg: 0/0/0 buffer size: 0 vbv_delay: -1
frame=  219 fps=0.0 q=42.0 PSNR=Y:nan U:nan V:nan *:nan size=      46kB time=00:00:05.86 bitrate=  64.1kbits/s speed=11.7x    frame=  300 fps=0.0 q=42.0 LPSNR=Y:inf U:inf V:inf *:inf size=      70kB time=00:00:09.93 bitrate=  58.0kbits/s speed=13.8x    
video:70kB audio:0kB subtitle:0kB other streams:0kB global headers:0kB muxing overhead: 0.000000%
[libx264 @ 0x55ffff476c60] frame I:2     Avg QP:33.60  size:  5352  PSNR Mean Y:34.36 U:43.39 V:45.93 Avg:35.91 Global:35.78
[libx264 @ 0x55ffff476c60] frame P:76    Avg QP:35.42  size:   522  PSNR Mean Y:32.89 U:43.78 V:45.65 Avg:34.51 Global:34.50
[libx264 @ 0x55ffff476c60] frame B:222   Avg QP:41.44  size:    97  PSNR Mean Y:32.77 U:43.72 V:45.63 Avg:34.39 Global:34.37
[libx264 @ 0x55ffff476c60] consecutive B-frames:  1.0%  0.7%  1.0% 97.3%
[libx264 @ 0x55ffff476c60] mb I  I16..4: 19.7% 70.7%  9.7%
[libx264 @ 0x55ffff476c60] mb P  I16..4:  0.2%  0.1%  0.0%  P16..4: 30.8%  6.1%  1.3%  0.0%  0.0%    skip:61.5%
[libx264 @ 0x55ffff476c60] mb B  I16..4:  0.0%  0.0%  0.0%  B16..8: 17.6%  0.1%  0.0%  direct: 0.0%  skip:82.3%  L0:32.7% L1:67.3% BI: 0.1%
[libx264 @ 0x55ffff476c60] 8x8 transform intra:65.3% inter:74.7%
[libx264 @ 0x55ffff476c60] coded y,uvDC,uvAC intra: 59.7% 36.6% 2.3% inter: 1.7% 0.7% 0.0%
[libx264 @ 0x55ffff476c60] i16 v,h,dc,p:  8% 44% 33% 15%
[libx264 @ 0x55ffff476c60] i8 v,h,dc,ddl,ddr,vr,hd,vl,hu:  4% 13% 28%  5%  9%  4% 19% 11%  6%
[libx264 @ 0x55ffff476c60] i4 v,h,dc,ddl,ddr,vr,hd,vl,hu:  5% 12% 25%  5% 16%  5% 23%  5%  3%
[libx264 @ 0x55ffff476c60] i8c dc,h,v,p: 76% 12%  9%  3%
[libx264 @ 0x55ffff476c60] Weighted P-Frames: Y:1.3% UV:0.0%
[libx264 @ 0x55ffff476c60] ref P L0: 65.8% 15.1% 15.3%  3.7%  0.0%
[libx264 @ 0x55ffff476c60] ref B L0: 71.8% 25.6%  2.6%
[libx264 @ 0x55ffff476c60] ref B L1: 75.0% 25.0%
[libx264 @ 0x55ffff476c60] PSNR Mean Y:32.815 U:43.733 V:45.639 Avg:34.433 Global:34.413 kb/s:57.62
